# xmcd CD database file
#
# Track frame offsets:
#	150
#	17909
#	36934
#	62314
#	72097
#	91917
#	101284
#	117883
#	129502
#
# Disc length: 2144 seconds
#
# Revision: 1
# Processed by: cddbd v1.5.2PL0 Copyright (c) Steve Scherf et al.
# Submitted via: CDex 1.50beta10
#
DISCID=6a085e09
DTITLE=The Flaming Lips - Embryonic [CD1]
DYEAR=2009
DGENRE=Alternative
TTITLE0=Convinced of the Hex
TTITLE1=The Sparrow Looks Up at the Machine
TTITLE2=Evil
TTITLE3=Aquarius Sabotage
TTITLE4=See the Leaves
TTITLE5=If
TTITLE6=Gemini Syringes
TTITLE7=Your Bats
TTITLE8=Powerless
EXTD=YEAR: 2009
EXTT0=
EXTT1=
EXTT2=
EXTT3=
EXTT4=
EXTT5=
EXTT6=
EXTT7=
EXTT8=
PLAYORDER=
